# Tiled2Unity generated file. Do not modify by hand.
# Wavefront file for 'WoodHouse_mesh_0002.obj'

# Vertices (Count = 36)
v -7 -4 0
v -8 -4 0
v -8 -3 0
v -7 -3 0
v -3 -4 0
v -4 -4 0
v -4 -3 0
v -3 -3 0
v -2 -4 0
v -3 -4 0
v -3 -3 0
v -2 -3 0
v -1 -4 0
v -2 -4 0
v -2 -3 0
v -1 -3 0
v -7 -6 0
v -8 -6 0
v -8 -5 0
v -7 -5 0
v -3 -6 0
v -4 -6 0
v -4 -5 0
v -3 -5 0
v -2 -6 0
v -3 -6 0
v -3 -5 0
v -2 -5 0
v -1 -6 0
v -2 -6 0
v -2 -5 0
v -1 -5 0
v -7 -8 0
v -8 -8 0
v -8 -7 0
v -7 -7 0

# Texture cooridinates (Count = 24)
vt 0.4214876 0.8403042
vt 0.4380165 0.8403042
vt 0.4380165 0.8707224
vt 0.4214876 0.8707224
vt 0.3863636 0.8726236
vt 0.4028926 0.8726236
vt 0.4028926 0.9030418
vt 0.3863636 0.9030418
vt 0.3688017 0.7756654
vt 0.3853306 0.7756654
vt 0.3853306 0.8060837
vt 0.3688017 0.8060837
vt 0.3688017 0.8726236
vt 0.3853306 0.8726236
vt 0.3853306 0.9030418
vt 0.3688017 0.9030418
vt 0.3863636 0.8079848
vt 0.4028926 0.8079848
vt 0.4028926 0.838403
vt 0.3863636 0.838403
vt 0.3688017 0.8079848
vt 0.3853306 0.8079848
vt 0.3853306 0.838403
vt 0.3688017 0.838403

# Normal
vn 0 0 -1

# Mesh description
g WoodHouse_mesh_0002

# Faces
f 1/1/1 2/2/1 3/3/1 4/4/1
f 5/5/1 6/6/1 7/7/1 8/8/1
f 9/9/1 10/10/1 11/11/1 12/12/1
f 13/13/1 14/14/1 15/15/1 16/16/1
f 17/1/1 18/2/1 19/3/1 20/4/1
f 21/17/1 22/18/1 23/19/1 24/20/1
f 25/9/1 26/10/1 27/11/1 28/12/1
f 29/21/1 30/22/1 31/23/1 32/24/1
f 33/1/1 34/2/1 35/3/1 36/4/1

