# Tiled2Unity generated file. Do not modify by hand.
# Wavefront file for 'WoodHouse_mesh_0003.obj'

# Vertices (Count = 12)
v -7 -4 0
v -8 -4 0
v -8 -3 0
v -7 -3 0
v -7 -6 0
v -8 -6 0
v -8 -5 0
v -7 -5 0
v -7 -8 0
v -8 -8 0
v -8 -7 0
v -7 -7 0

# Texture cooridinates (Count = 12)
vt 0.9834711 0.581749
vt 1 0.581749
vt 1 0.6121673
vt 0.9834711 0.6121673
vt 0.9659091 0.6140684
vt 0.982438 0.6140684
vt 0.982438 0.6444867
vt 0.9659091 0.6444867
vt 0.9659091 0.5171103
vt 0.982438 0.5171103
vt 0.982438 0.5475285
vt 0.9659091 0.5475285

# Normal
vn 0 0 -1

# Mesh description
g WoodHouse_mesh_0003

# Faces
f 1/1/1 2/2/1 3/3/1 4/4/1
f 5/5/1 6/6/1 7/7/1 8/8/1
f 9/9/1 10/10/1 11/11/1 12/12/1

