# Tiled2Unity generated file. Do not modify by hand.
# Wavefront file for 'main_mesh_0002.obj'

# Vertices (Count = 600)
v -51 -25 0
v -52 -25 0
v -52 -24 0
v -51 -24 0
v -50 -25 0
v -51 -25 0
v -51 -24 0
v -50 -24 0
v -49 -25 0
v -50 -25 0
v -50 -24 0
v -49 -24 0
v -48 -25 0
v -49 -25 0
v -49 -24 0
v -48 -24 0
v -47 -25 0
v -48 -25 0
v -48 -24 0
v -47 -24 0
v -46 -25 0
v -47 -25 0
v -47 -24 0
v -46 -24 0
v -45 -25 0
v -46 -25 0
v -46 -24 0
v -45 -24 0
v -44 -25 0
v -45 -25 0
v -45 -24 0
v -44 -24 0
v -43 -25 0
v -44 -25 0
v -44 -24 0
v -43 -24 0
v -51 -26 0
v -52 -26 0
v -52 -25 0
v -51 -25 0
v -50 -26 0
v -51 -26 0
v -51 -25 0
v -50 -25 0
v -49 -26 0
v -50 -26 0
v -50 -25 0
v -49 -25 0
v -48 -26 0
v -49 -26 0
v -49 -25 0
v -48 -25 0
v -47 -26 0
v -48 -26 0
v -48 -25 0
v -47 -25 0
v -46 -26 0
v -47 -26 0
v -47 -25 0
v -46 -25 0
v -45 -26 0
v -46 -26 0
v -46 -25 0
v -45 -25 0
v -44 -26 0
v -45 -26 0
v -45 -25 0
v -44 -25 0
v -43 -26 0
v -44 -26 0
v -44 -25 0
v -43 -25 0
v -51 -27 0
v -52 -27 0
v -52 -26 0
v -51 -26 0
v -50 -27 0
v -51 -27 0
v -51 -26 0
v -50 -26 0
v -49 -27 0
v -50 -27 0
v -50 -26 0
v -49 -26 0
v -48 -27 0
v -49 -27 0
v -49 -26 0
v -48 -26 0
v -47 -27 0
v -48 -27 0
v -48 -26 0
v -47 -26 0
v -46 -27 0
v -47 -27 0
v -47 -26 0
v -46 -26 0
v -45 -27 0
v -46 -27 0
v -46 -26 0
v -45 -26 0
v -44 -27 0
v -45 -27 0
v -45 -26 0
v -44 -26 0
v -43 -27 0
v -44 -27 0
v -44 -26 0
v -43 -26 0
v -51 -28 0
v -52 -28 0
v -52 -27 0
v -51 -27 0
v -50 -28 0
v -51 -28 0
v -51 -27 0
v -50 -27 0
v -49 -28 0
v -50 -28 0
v -50 -27 0
v -49 -27 0
v -48 -28 0
v -49 -28 0
v -49 -27 0
v -48 -27 0
v -47 -28 0
v -48 -28 0
v -48 -27 0
v -47 -27 0
v -46 -28 0
v -47 -28 0
v -47 -27 0
v -46 -27 0
v -45 -28 0
v -46 -28 0
v -46 -27 0
v -45 -27 0
v -44 -28 0
v -45 -28 0
v -45 -27 0
v -44 -27 0
v -43 -28 0
v -44 -28 0
v -44 -27 0
v -43 -27 0
v -51 -29 0
v -52 -29 0
v -52 -28 0
v -51 -28 0
v -50 -29 0
v -51 -29 0
v -51 -28 0
v -50 -28 0
v -49 -29 0
v -50 -29 0
v -50 -28 0
v -49 -28 0
v -48 -29 0
v -49 -29 0
v -49 -28 0
v -48 -28 0
v -47 -29 0
v -48 -29 0
v -48 -28 0
v -47 -28 0
v -46 -29 0
v -47 -29 0
v -47 -28 0
v -46 -28 0
v -45 -29 0
v -46 -29 0
v -46 -28 0
v -45 -28 0
v -44 -29 0
v -45 -29 0
v -45 -28 0
v -44 -28 0
v -43 -29 0
v -44 -29 0
v -44 -28 0
v -43 -28 0
v -51 -30 0
v -52 -30 0
v -52 -29 0
v -51 -29 0
v -50 -30 0
v -51 -30 0
v -51 -29 0
v -50 -29 0
v -49 -30 0
v -50 -30 0
v -50 -29 0
v -49 -29 0
v -48 -30 0
v -49 -30 0
v -49 -29 0
v -48 -29 0
v -47 -30 0
v -48 -30 0
v -48 -29 0
v -47 -29 0
v -46 -30 0
v -47 -30 0
v -47 -29 0
v -46 -29 0
v -45 -30 0
v -46 -30 0
v -46 -29 0
v -45 -29 0
v -44 -30 0
v -45 -30 0
v -45 -29 0
v -44 -29 0
v -43 -30 0
v -44 -30 0
v -44 -29 0
v -43 -29 0
v -51 -31 0
v -52 -31 0
v -52 -30 0
v -51 -30 0
v -50 -31 0
v -51 -31 0
v -51 -30 0
v -50 -30 0
v -49 -31 0
v -50 -31 0
v -50 -30 0
v -49 -30 0
v -48 -31 0
v -49 -31 0
v -49 -30 0
v -48 -30 0
v -47 -31 0
v -48 -31 0
v -48 -30 0
v -47 -30 0
v -46 -31 0
v -47 -31 0
v -47 -30 0
v -46 -30 0
v -45 -31 0
v -46 -31 0
v -46 -30 0
v -45 -30 0
v -44 -31 0
v -45 -31 0
v -45 -30 0
v -44 -30 0
v -43 -31 0
v -44 -31 0
v -44 -30 0
v -43 -30 0
v -52 -32 0
v -53 -32 0
v -53 -31 0
v -52 -31 0
v -51 -32 0
v -52 -32 0
v -52 -31 0
v -51 -31 0
v -50 -32 0
v -51 -32 0
v -51 -31 0
v -50 -31 0
v -49 -32 0
v -50 -32 0
v -50 -31 0
v -49 -31 0
v -48 -32 0
v -49 -32 0
v -49 -31 0
v -48 -31 0
v -47 -32 0
v -48 -32 0
v -48 -31 0
v -47 -31 0
v -46 -32 0
v -47 -32 0
v -47 -31 0
v -46 -31 0
v -45 -32 0
v -46 -32 0
v -46 -31 0
v -45 -31 0
v -44 -32 0
v -45 -32 0
v -45 -31 0
v -44 -31 0
v -43 -32 0
v -44 -32 0
v -44 -31 0
v -43 -31 0
v -42 -32 0
v -43 -32 0
v -43 -31 0
v -42 -31 0
v -41 -32 0
v -42 -32 0
v -42 -31 0
v -41 -31 0
v -52 -33 0
v -53 -33 0
v -53 -32 0
v -52 -32 0
v -51 -33 0
v -52 -33 0
v -52 -32 0
v -51 -32 0
v -50 -33 0
v -51 -33 0
v -51 -32 0
v -50 -32 0
v -49 -33 0
v -50 -33 0
v -50 -32 0
v -49 -32 0
v -48 -33 0
v -49 -33 0
v -49 -32 0
v -48 -32 0
v -47 -33 0
v -48 -33 0
v -48 -32 0
v -47 -32 0
v -46 -33 0
v -47 -33 0
v -47 -32 0
v -46 -32 0
v -45 -33 0
v -46 -33 0
v -46 -32 0
v -45 -32 0
v -44 -33 0
v -45 -33 0
v -45 -32 0
v -44 -32 0
v -43 -33 0
v -44 -33 0
v -44 -32 0
v -43 -32 0
v -42 -33 0
v -43 -33 0
v -43 -32 0
v -42 -32 0
v -41 -33 0
v -42 -33 0
v -42 -32 0
v -41 -32 0
v -39 -33 0
v -40 -33 0
v -40 -32 0
v -39 -32 0
v -38 -33 0
v -39 -33 0
v -39 -32 0
v -38 -32 0
v -37 -33 0
v -38 -33 0
v -38 -32 0
v -37 -32 0
v -52 -34 0
v -53 -34 0
v -53 -33 0
v -52 -33 0
v -51 -34 0
v -52 -34 0
v -52 -33 0
v -51 -33 0
v -50 -34 0
v -51 -34 0
v -51 -33 0
v -50 -33 0
v -49 -34 0
v -50 -34 0
v -50 -33 0
v -49 -33 0
v -48 -34 0
v -49 -34 0
v -49 -33 0
v -48 -33 0
v -47 -34 0
v -48 -34 0
v -48 -33 0
v -47 -33 0
v -46 -34 0
v -47 -34 0
v -47 -33 0
v -46 -33 0
v -45 -34 0
v -46 -34 0
v -46 -33 0
v -45 -33 0
v -44 -34 0
v -45 -34 0
v -45 -33 0
v -44 -33 0
v -43 -34 0
v -44 -34 0
v -44 -33 0
v -43 -33 0
v -42 -34 0
v -43 -34 0
v -43 -33 0
v -42 -33 0
v -39 -34 0
v -40 -34 0
v -40 -33 0
v -39 -33 0
v -38 -34 0
v -39 -34 0
v -39 -33 0
v -38 -33 0
v -37 -34 0
v -38 -34 0
v -38 -33 0
v -37 -33 0
v -52 -35 0
v -53 -35 0
v -53 -34 0
v -52 -34 0
v -51 -35 0
v -52 -35 0
v -52 -34 0
v -51 -34 0
v -50 -35 0
v -51 -35 0
v -51 -34 0
v -50 -34 0
v -49 -35 0
v -50 -35 0
v -50 -34 0
v -49 -34 0
v -48 -35 0
v -49 -35 0
v -49 -34 0
v -48 -34 0
v -47 -35 0
v -48 -35 0
v -48 -34 0
v -47 -34 0
v -46 -35 0
v -47 -35 0
v -47 -34 0
v -46 -34 0
v -45 -35 0
v -46 -35 0
v -46 -34 0
v -45 -34 0
v -44 -35 0
v -45 -35 0
v -45 -34 0
v -44 -34 0
v -43 -35 0
v -44 -35 0
v -44 -34 0
v -43 -34 0
v -42 -35 0
v -43 -35 0
v -43 -34 0
v -42 -34 0
v -39 -35 0
v -40 -35 0
v -40 -34 0
v -39 -34 0
v -38 -35 0
v -39 -35 0
v -39 -34 0
v -38 -34 0
v -37 -35 0
v -38 -35 0
v -38 -34 0
v -37 -34 0
v -58 -36 0
v -59 -36 0
v -59 -35 0
v -58 -35 0
v -55 -36 0
v -56 -36 0
v -56 -35 0
v -55 -35 0
v -52 -36 0
v -53 -36 0
v -53 -35 0
v -52 -35 0
v -51 -36 0
v -52 -36 0
v -52 -35 0
v -51 -35 0
v -50 -36 0
v -51 -36 0
v -51 -35 0
v -50 -35 0
v -49 -36 0
v -50 -36 0
v -50 -35 0
v -49 -35 0
v -48 -36 0
v -49 -36 0
v -49 -35 0
v -48 -35 0
v -47 -36 0
v -48 -36 0
v -48 -35 0
v -47 -35 0
v -46 -36 0
v -47 -36 0
v -47 -35 0
v -46 -35 0
v -45 -36 0
v -46 -36 0
v -46 -35 0
v -45 -35 0
v -44 -36 0
v -45 -36 0
v -45 -35 0
v -44 -35 0
v -43 -36 0
v -44 -36 0
v -44 -35 0
v -43 -35 0
v -42 -36 0
v -43 -36 0
v -43 -35 0
v -42 -35 0
v -39 -36 0
v -40 -36 0
v -40 -35 0
v -39 -35 0
v -38 -36 0
v -39 -36 0
v -39 -35 0
v -38 -35 0
v -37 -36 0
v -38 -36 0
v -38 -35 0
v -37 -35 0
v -57 -37 0
v -58 -37 0
v -58 -36 0
v -57 -36 0
v -56 -37 0
v -57 -37 0
v -57 -36 0
v -56 -36 0
v -52 -37 0
v -53 -37 0
v -53 -36 0
v -52 -36 0
v -51 -37 0
v -52 -37 0
v -52 -36 0
v -51 -36 0
v -50 -37 0
v -51 -37 0
v -51 -36 0
v -50 -36 0
v -49 -37 0
v -50 -37 0
v -50 -36 0
v -49 -36 0
v -48 -37 0
v -49 -37 0
v -49 -36 0
v -48 -36 0
v -47 -37 0
v -48 -37 0
v -48 -36 0
v -47 -36 0
v -46 -37 0
v -47 -37 0
v -47 -36 0
v -46 -36 0
v -45 -37 0
v -46 -37 0
v -46 -36 0
v -45 -36 0
v -44 -37 0
v -45 -37 0
v -45 -36 0
v -44 -36 0
v -43 -37 0
v -44 -37 0
v -44 -36 0
v -43 -36 0
v -42 -37 0
v -43 -37 0
v -43 -36 0
v -42 -36 0
v -39 -37 0
v -40 -37 0
v -40 -36 0
v -39 -36 0
v -38 -37 0
v -39 -37 0
v -39 -36 0
v -38 -36 0
v -37 -37 0
v -38 -37 0
v -38 -36 0
v -37 -36 0

# Texture cooridinates (Count = 208)
vt 0.07024793 0.3878327
vt 0.08677686 0.3878327
vt 0.08677686 0.4182509
vt 0.07024793 0.4182509
vt 0.05268595 0.3878327
vt 0.06921487 0.3878327
vt 0.06921487 0.4182509
vt 0.05268595 0.4182509
vt 0.03512397 0.3878327
vt 0.05165289 0.3878327
vt 0.05165289 0.4182509
vt 0.03512397 0.4182509
vt 0.07024793 0.3555133
vt 0.08677686 0.3555133
vt 0.08677686 0.3859316
vt 0.07024793 0.3859316
vt 0.05268595 0.3555133
vt 0.06921487 0.3555133
vt 0.06921487 0.3859316
vt 0.05268595 0.3859316
vt 0.05268595 0.3231939
vt 0.06921487 0.3231939
vt 0.06921487 0.3536122
vt 0.05268595 0.3536122
vt 0.03512397 0.3555133
vt 0.05165289 0.3555133
vt 0.05165289 0.3859316
vt 0.03512397 0.3859316
vt 0.07024793 0.9695817
vt 0.08677686 0.9695817
vt 0.08677686 1
vt 0.07024793 1
vt 0.05268595 0.9695817
vt 0.06921487 0.9695817
vt 0.06921487 1
vt 0.05268595 1
vt 0.03512397 0.9695817
vt 0.05165289 0.9695817
vt 0.05165289 1
vt 0.03512397 1
vt 0.07024793 0.9372624
vt 0.08677686 0.9372624
vt 0.08677686 0.9676806
vt 0.07024793 0.9676806
vt 0 0.9695817
vt 0.01652892 0.9695817
vt 0.01652892 1
vt 0 1
vt 0.01756198 0.9695817
vt 0.03409091 0.9695817
vt 0.03409091 1
vt 0.01756198 1
vt 0.03512397 0.9372624
vt 0.05165289 0.9372624
vt 0.05165289 0.9676806
vt 0.03512397 0.9676806
vt 0.08780992 0.9695817
vt 0.1043388 0.9695817
vt 0.1043388 1
vt 0.08780992 1
vt 0.07024793 0.904943
vt 0.08677686 0.904943
vt 0.08677686 0.9353612
vt 0.07024793 0.9353612
vt 0.05268595 0.904943
vt 0.06921487 0.904943
vt 0.06921487 0.9353612
vt 0.05268595 0.9353612
vt 0.03512397 0.904943
vt 0.05165289 0.904943
vt 0.05165289 0.9353612
vt 0.03512397 0.9353612
vt 0.3688017 0.2908745
vt 0.3853306 0.2908745
vt 0.3853306 0.3212928
vt 0.3688017 0.3212928
vt 0.4390496 0.2908745
vt 0.4555785 0.2908745
vt 0.4555785 0.3212928
vt 0.4390496 0.3212928
vt 0.3512397 0.2908745
vt 0.3677686 0.2908745
vt 0.3677686 0.3212928
vt 0.3512397 0.3212928
vt 0.3688017 0.2585551
vt 0.3853306 0.2585551
vt 0.3853306 0.2889734
vt 0.3688017 0.2889734
vt 0.4390496 0.2585551
vt 0.4555785 0.2585551
vt 0.4555785 0.2889734
vt 0.4390496 0.2889734
vt 0.3512397 0.2585551
vt 0.3677686 0.2585551
vt 0.3677686 0.2889734
vt 0.3512397 0.2889734
vt 0.07024793 0.7756654
vt 0.08677686 0.7756654
vt 0.08677686 0.8060837
vt 0.07024793 0.8060837
vt 0.05268595 0.7756654
vt 0.06921487 0.7756654
vt 0.06921487 0.8060837
vt 0.05268595 0.8060837
vt 0.03512397 0.7756654
vt 0.05165289 0.7756654
vt 0.05165289 0.8060837
vt 0.03512397 0.8060837
vt 0.07024793 0.581749
vt 0.08677686 0.581749
vt 0.08677686 0.6121673
vt 0.07024793 0.6121673
vt 0.05268595 0.581749
vt 0.06921487 0.581749
vt 0.06921487 0.6121673
vt 0.05268595 0.6121673
vt 0.03512397 0.581749
vt 0.05165289 0.581749
vt 0.05165289 0.6121673
vt 0.03512397 0.6121673
vt 0.3688017 0.2262357
vt 0.3853306 0.2262357
vt 0.3853306 0.256654
vt 0.3688017 0.256654
vt 0.7376033 0.9372624
vt 0.7541322 0.9372624
vt 0.7541322 0.9676806
vt 0.7376033 0.9676806
vt 0.3512397 0.2262357
vt 0.3677686 0.2262357
vt 0.3677686 0.256654
vt 0.3512397 0.256654
vt 0.7551653 0.9695817
vt 0.7716942 0.9695817
vt 0.7716942 1
vt 0.7551653 1
vt 0.07024793 0.743346
vt 0.08677686 0.743346
vt 0.08677686 0.7737643
vt 0.07024793 0.7737643
vt 0.05268595 0.743346
vt 0.06921487 0.743346
vt 0.06921487 0.7737643
vt 0.05268595 0.7737643
vt 0.03512397 0.743346
vt 0.05165289 0.743346
vt 0.05165289 0.7737643
vt 0.03512397 0.7737643
vt 0.07024793 0.5494297
vt 0.08677686 0.5494297
vt 0.08677686 0.5798479
vt 0.07024793 0.5798479
vt 0.05268595 0.5494297
vt 0.06921487 0.5494297
vt 0.06921487 0.5798479
vt 0.05268595 0.5798479
vt 0.03512397 0.5494297
vt 0.05165289 0.5494297
vt 0.05165289 0.5798479
vt 0.03512397 0.5798479
vt 0.4214876 0.1939164
vt 0.4380165 0.1939164
vt 0.4380165 0.2243346
vt 0.4214876 0.2243346
vt 0.6497934 0.9372624
vt 0.6663223 0.9372624
vt 0.6663223 0.9676806
vt 0.6497934 0.9676806
vt 0.4039256 0.1939164
vt 0.4204545 0.1939164
vt 0.4204545 0.2243346
vt 0.4039256 0.2243346
vt 0.6146694 0.7110266
vt 0.6311983 0.7110266
vt 0.6311983 0.7414449
vt 0.6146694 0.7414449
vt 0.5971074 0.7110266
vt 0.6136364 0.7110266
vt 0.6136364 0.7414449
vt 0.5971074 0.7414449
vt 0.07024793 0.7110266
vt 0.08677686 0.7110266
vt 0.08677686 0.7414449
vt 0.07024793 0.7414449
vt 0.05268595 0.7110266
vt 0.06921487 0.7110266
vt 0.06921487 0.7414449
vt 0.05268595 0.7414449
vt 0.03512397 0.7110266
vt 0.05165289 0.7110266
vt 0.05165289 0.7414449
vt 0.03512397 0.7414449
vt 0.07024793 0.5171103
vt 0.08677686 0.5171103
vt 0.08677686 0.5475285
vt 0.07024793 0.5475285
vt 0.05268595 0.5171103
vt 0.06921487 0.5171103
vt 0.06921487 0.5475285
vt 0.05268595 0.5475285
vt 0.03512397 0.5171103
vt 0.05165289 0.5171103
vt 0.05165289 0.5475285
vt 0.03512397 0.5475285
vt 0.1580579 0.5494297
vt 0.1745868 0.5494297
vt 0.1745868 0.5798479
vt 0.1580579 0.5798479

# Normal
vn 0 0 -1

# Mesh description
g main_mesh_0002

# Faces
f 1/1/1 2/2/1 3/3/1 4/4/1
f 5/5/1 6/6/1 7/7/1 8/8/1
f 9/5/1 10/6/1 11/7/1 12/8/1
f 13/5/1 14/6/1 15/7/1 16/8/1
f 17/5/1 18/6/1 19/7/1 20/8/1
f 21/5/1 22/6/1 23/7/1 24/8/1
f 25/5/1 26/6/1 27/7/1 28/8/1
f 29/5/1 30/6/1 31/7/1 32/8/1
f 33/9/1 34/10/1 35/11/1 36/12/1
f 37/13/1 38/14/1 39/15/1 40/16/1
f 41/17/1 42/18/1 43/19/1 44/20/1
f 45/21/1 46/22/1 47/23/1 48/24/1
f 49/21/1 50/22/1 51/23/1 52/24/1
f 53/21/1 54/22/1 55/23/1 56/24/1
f 57/21/1 58/22/1 59/23/1 60/24/1
f 61/21/1 62/22/1 63/23/1 64/24/1
f 65/17/1 66/18/1 67/19/1 68/20/1
f 69/25/1 70/26/1 71/27/1 72/28/1
f 73/13/1 74/14/1 75/15/1 76/16/1
f 77/25/1 78/26/1 79/27/1 80/28/1
f 81/29/1 82/30/1 83/31/1 84/32/1
f 85/33/1 86/34/1 87/35/1 88/36/1
f 89/33/1 90/34/1 91/35/1 92/36/1
f 93/33/1 94/34/1 95/35/1 96/36/1
f 97/37/1 98/38/1 99/39/1 100/40/1
f 101/13/1 102/14/1 103/15/1 104/16/1
f 105/25/1 106/26/1 107/27/1 108/28/1
f 109/13/1 110/14/1 111/15/1 112/16/1
f 113/25/1 114/26/1 115/27/1 116/28/1
f 117/41/1 118/42/1 119/43/1 120/44/1
f 121/45/1 122/46/1 123/47/1 124/48/1
f 125/45/1 126/46/1 127/47/1 128/48/1
f 129/49/1 130/50/1 131/51/1 132/52/1
f 133/53/1 134/54/1 135/55/1 136/56/1
f 137/13/1 138/14/1 139/15/1 140/16/1
f 141/25/1 142/26/1 143/27/1 144/28/1
f 145/13/1 146/14/1 147/15/1 148/16/1
f 149/25/1 150/26/1 151/27/1 152/28/1
f 153/41/1 154/42/1 155/43/1 156/44/1
f 157/49/1 158/50/1 159/51/1 160/52/1
f 161/49/1 162/50/1 163/51/1 164/52/1
f 165/45/1 166/46/1 167/47/1 168/48/1
f 169/53/1 170/54/1 171/55/1 172/56/1
f 173/13/1 174/14/1 175/15/1 176/16/1
f 177/25/1 178/26/1 179/27/1 180/28/1
f 181/13/1 182/14/1 183/15/1 184/16/1
f 185/25/1 186/26/1 187/27/1 188/28/1
f 189/41/1 190/42/1 191/43/1 192/44/1
f 193/49/1 194/50/1 195/51/1 196/52/1
f 197/45/1 198/46/1 199/47/1 200/48/1
f 201/49/1 202/50/1 203/51/1 204/52/1
f 205/53/1 206/54/1 207/55/1 208/56/1
f 209/13/1 210/14/1 211/15/1 212/16/1
f 213/25/1 214/26/1 215/27/1 216/28/1
f 217/13/1 218/14/1 219/15/1 220/16/1
f 221/25/1 222/26/1 223/27/1 224/28/1
f 225/41/1 226/42/1 227/43/1 228/44/1
f 229/49/1 230/50/1 231/51/1 232/52/1
f 233/49/1 234/50/1 235/51/1 236/52/1
f 237/49/1 238/50/1 239/51/1 240/52/1
f 241/53/1 242/54/1 243/55/1 244/56/1
f 245/13/1 246/14/1 247/15/1 248/16/1
f 249/25/1 250/26/1 251/27/1 252/28/1
f 253/57/1 254/58/1 255/59/1 256/60/1
f 257/13/1 258/14/1 259/15/1 260/16/1
f 261/25/1 262/26/1 263/27/1 264/28/1
f 265/61/1 266/62/1 267/63/1 268/64/1
f 269/65/1 270/66/1 271/67/1 272/68/1
f 273/65/1 274/66/1 275/67/1 276/68/1
f 277/65/1 278/66/1 279/67/1 280/68/1
f 281/69/1 282/70/1 283/71/1 284/72/1
f 285/13/1 286/14/1 287/15/1 288/16/1
f 289/25/1 290/26/1 291/27/1 292/28/1
f 293/57/1 294/58/1 295/59/1 296/60/1
f 297/57/1 298/58/1 299/59/1 300/60/1
f 301/1/1 302/2/1 303/3/1 304/4/1
f 305/17/1 306/18/1 307/19/1 308/20/1
f 309/17/1 310/18/1 311/19/1 312/20/1
f 313/5/1 314/6/1 315/7/1 316/8/1
f 317/5/1 318/6/1 319/7/1 320/8/1
f 321/5/1 322/6/1 323/7/1 324/8/1
f 325/5/1 326/6/1 327/7/1 328/8/1
f 329/5/1 330/6/1 331/7/1 332/8/1
f 333/17/1 334/18/1 335/19/1 336/20/1
f 337/17/1 338/18/1 339/19/1 340/20/1
f 341/9/1 342/10/1 343/11/1 344/12/1
f 345/57/1 346/58/1 347/59/1 348/60/1
f 349/73/1 350/74/1 351/75/1 352/76/1
f 353/77/1 354/78/1 355/79/1 356/80/1
f 357/81/1 358/82/1 359/83/1 360/84/1
f 361/13/1 362/14/1 363/15/1 364/16/1
f 365/17/1 366/18/1 367/19/1 368/20/1
f 369/17/1 370/18/1 371/19/1 372/20/1
f 373/21/1 374/22/1 375/23/1 376/24/1
f 377/21/1 378/22/1 379/23/1 380/24/1
f 381/21/1 382/22/1 383/23/1 384/24/1
f 385/21/1 386/22/1 387/23/1 388/24/1
f 389/21/1 390/22/1 391/23/1 392/24/1
f 393/21/1 394/22/1 395/23/1 396/24/1
f 397/17/1 398/18/1 399/19/1 400/20/1
f 401/25/1 402/26/1 403/27/1 404/28/1
f 405/85/1 406/86/1 407/87/1 408/88/1
f 409/89/1 410/90/1 411/91/1 412/92/1
f 413/93/1 414/94/1 415/95/1 416/96/1
f 417/13/1 418/14/1 419/15/1 420/16/1
f 421/17/1 422/18/1 423/19/1 424/20/1
f 425/25/1 426/26/1 427/27/1 428/28/1
f 429/97/1 430/98/1 431/99/1 432/100/1
f 433/101/1 434/102/1 435/103/1 436/104/1
f 437/105/1 438/106/1 439/107/1 440/108/1
f 441/109/1 442/110/1 443/111/1 444/112/1
f 445/113/1 446/114/1 447/115/1 448/116/1
f 449/117/1 450/118/1 451/119/1 452/120/1
f 453/13/1 454/14/1 455/15/1 456/16/1
f 457/25/1 458/26/1 459/27/1 460/28/1
f 461/121/1 462/122/1 463/123/1 464/124/1
f 465/125/1 466/126/1 467/127/1 468/128/1
f 469/129/1 470/130/1 471/131/1 472/132/1
f 473/133/1 474/134/1 475/135/1 476/136/1
f 477/133/1 478/134/1 479/135/1 480/136/1
f 481/13/1 482/14/1 483/15/1 484/16/1
f 485/17/1 486/18/1 487/19/1 488/20/1
f 489/25/1 490/26/1 491/27/1 492/28/1
f 493/137/1 494/138/1 495/139/1 496/140/1
f 497/141/1 498/142/1 499/143/1 500/144/1
f 501/145/1 502/146/1 503/147/1 504/148/1
f 505/149/1 506/150/1 507/151/1 508/152/1
f 509/153/1 510/154/1 511/155/1 512/156/1
f 513/157/1 514/158/1 515/159/1 516/160/1
f 517/13/1 518/14/1 519/15/1 520/16/1
f 521/25/1 522/26/1 523/27/1 524/28/1
f 525/161/1 526/162/1 527/163/1 528/164/1
f 529/165/1 530/166/1 531/167/1 532/168/1
f 533/169/1 534/170/1 535/171/1 536/172/1
f 537/173/1 538/174/1 539/175/1 540/176/1
f 541/177/1 542/178/1 543/179/1 544/180/1
f 545/13/1 546/14/1 547/15/1 548/16/1
f 549/17/1 550/18/1 551/19/1 552/20/1
f 553/25/1 554/26/1 555/27/1 556/28/1
f 557/181/1 558/182/1 559/183/1 560/184/1
f 561/185/1 562/186/1 563/187/1 564/188/1
f 565/189/1 566/190/1 567/191/1 568/192/1
f 569/193/1 570/194/1 571/195/1 572/196/1
f 573/197/1 574/198/1 575/199/1 576/200/1
f 577/201/1 578/202/1 579/203/1 580/204/1
f 581/13/1 582/14/1 583/15/1 584/16/1
f 585/25/1 586/26/1 587/27/1 588/28/1
f 589/57/1 590/58/1 591/59/1 592/60/1
f 593/205/1 594/206/1 595/207/1 596/208/1
f 597/57/1 598/58/1 599/59/1 600/60/1

