# Tiled2Unity generated file. Do not modify by hand.
# Wavefront file for 'RealMap_mesh_0003.obj'

# Vertices (Count = 232)
v -110 -101 0
v -111 -101 0
v -111 -100 0
v -110 -100 0
v -111 -101 0
v -112 -101 0
v -112 -100 0
v -111 -100 0
v -112 -101 0
v -113 -101 0
v -113 -100 0
v -112 -100 0
v -113 -101 0
v -114 -101 0
v -114 -100 0
v -113 -100 0
v -114 -101 0
v -115 -101 0
v -115 -100 0
v -114 -100 0
v -115 -101 0
v -116 -101 0
v -116 -100 0
v -115 -100 0
v -109 -102 0
v -110 -102 0
v -110 -101 0
v -109 -101 0
v -110 -102 0
v -111 -102 0
v -111 -101 0
v -110 -101 0
v -111 -102 0
v -112 -102 0
v -112 -101 0
v -111 -101 0
v -112 -102 0
v -113 -102 0
v -113 -101 0
v -112 -101 0
v -113 -102 0
v -114 -102 0
v -114 -101 0
v -113 -101 0
v -114 -102 0
v -115 -102 0
v -115 -101 0
v -114 -101 0
v -115 -102 0
v -116 -102 0
v -116 -101 0
v -115 -101 0
v -116 -102 0
v -117 -102 0
v -117 -101 0
v -116 -101 0
v -109 -103 0
v -110 -103 0
v -110 -102 0
v -109 -102 0
v -110 -103 0
v -111 -103 0
v -111 -102 0
v -110 -102 0
v -111 -103 0
v -112 -103 0
v -112 -102 0
v -111 -102 0
v -112 -103 0
v -113 -103 0
v -113 -102 0
v -112 -102 0
v -113 -103 0
v -114 -103 0
v -114 -102 0
v -113 -102 0
v -114 -103 0
v -115 -103 0
v -115 -102 0
v -114 -102 0
v -115 -103 0
v -116 -103 0
v -116 -102 0
v -115 -102 0
v -116 -103 0
v -117 -103 0
v -117 -102 0
v -116 -102 0
v -109 -104 0
v -110 -104 0
v -110 -103 0
v -109 -103 0
v -110 -104 0
v -111 -104 0
v -111 -103 0
v -110 -103 0
v -111 -104 0
v -112 -104 0
v -112 -103 0
v -111 -103 0
v -112 -104 0
v -113 -104 0
v -113 -103 0
v -112 -103 0
v -113 -104 0
v -114 -104 0
v -114 -103 0
v -113 -103 0
v -114 -104 0
v -115 -104 0
v -115 -103 0
v -114 -103 0
v -115 -104 0
v -116 -104 0
v -116 -103 0
v -115 -103 0
v -116 -104 0
v -117 -104 0
v -117 -103 0
v -116 -103 0
v -77 -162 0
v -78 -162 0
v -78 -161 0
v -77 -161 0
v -79 -162 0
v -80 -162 0
v -80 -161 0
v -79 -161 0
v -80 -162 0
v -81 -162 0
v -81 -161 0
v -80 -161 0
v -81 -162 0
v -82 -162 0
v -82 -161 0
v -81 -161 0
v -82 -162 0
v -83 -162 0
v -83 -161 0
v -82 -161 0
v -83 -162 0
v -84 -162 0
v -84 -161 0
v -83 -161 0
v -84 -162 0
v -85 -162 0
v -85 -161 0
v -84 -161 0
v -85 -162 0
v -86 -162 0
v -86 -161 0
v -85 -161 0
v -86 -162 0
v -87 -162 0
v -87 -161 0
v -86 -161 0
v -77 -163 0
v -78 -163 0
v -78 -162 0
v -77 -162 0
v -79 -163 0
v -80 -163 0
v -80 -162 0
v -79 -162 0
v -80 -163 0
v -81 -163 0
v -81 -162 0
v -80 -162 0
v -81 -163 0
v -82 -163 0
v -82 -162 0
v -81 -162 0
v -82 -163 0
v -83 -163 0
v -83 -162 0
v -82 -162 0
v -83 -163 0
v -84 -163 0
v -84 -162 0
v -83 -162 0
v -84 -163 0
v -85 -163 0
v -85 -162 0
v -84 -162 0
v -85 -163 0
v -86 -163 0
v -86 -162 0
v -85 -162 0
v -86 -163 0
v -87 -163 0
v -87 -162 0
v -86 -162 0
v -77 -164 0
v -78 -164 0
v -78 -163 0
v -77 -163 0
v -78 -164 0
v -79 -164 0
v -79 -163 0
v -78 -163 0
v -79 -164 0
v -80 -164 0
v -80 -163 0
v -79 -163 0
v -80 -164 0
v -81 -164 0
v -81 -163 0
v -80 -163 0
v -81 -164 0
v -82 -164 0
v -82 -163 0
v -81 -163 0
v -82 -164 0
v -83 -164 0
v -83 -163 0
v -82 -163 0
v -83 -164 0
v -84 -164 0
v -84 -163 0
v -83 -163 0
v -84 -164 0
v -85 -164 0
v -85 -163 0
v -84 -163 0
v -85 -164 0
v -86 -164 0
v -86 -163 0
v -85 -163 0
v -86 -164 0
v -87 -164 0
v -87 -163 0
v -86 -163 0

# Texture cooridinates (Count = 48)
vt 0.6849173 0.2262357
vt 0.7014463 0.2262357
vt 0.7014463 0.256654
vt 0.6849173 0.256654
vt 0.6849173 0.2585551
vt 0.7014463 0.2585551
vt 0.7014463 0.2889734
vt 0.6849173 0.2889734
vt 0.6673554 0.2585551
vt 0.6838843 0.2585551
vt 0.6838843 0.2889734
vt 0.6673554 0.2889734
vt 0.7024794 0.2585551
vt 0.7190083 0.2585551
vt 0.7190083 0.2889734
vt 0.7024794 0.2889734
vt 0.6673554 0.2262357
vt 0.6838843 0.2262357
vt 0.6838843 0.256654
vt 0.6673554 0.256654
vt 0.7024794 0.2262357
vt 0.7190083 0.2262357
vt 0.7190083 0.256654
vt 0.7024794 0.256654
vt 0.4390496 0.2585551
vt 0.4555785 0.2585551
vt 0.4555785 0.2889734
vt 0.4390496 0.2889734
vt 0.4214876 0.2585551
vt 0.4380165 0.2585551
vt 0.4380165 0.2889734
vt 0.4214876 0.2889734
vt 0.4566116 0.2585551
vt 0.4731405 0.2585551
vt 0.4731405 0.2889734
vt 0.4566116 0.2889734
vt 0.4214876 0.2262357
vt 0.4380165 0.2262357
vt 0.4380165 0.256654
vt 0.4214876 0.256654
vt 0.4390496 0.2262357
vt 0.4555785 0.2262357
vt 0.4555785 0.256654
vt 0.4390496 0.256654
vt 0.4566116 0.2262357
vt 0.4731405 0.2262357
vt 0.4731405 0.256654
vt 0.4566116 0.256654

# Normal
vn 0 0 -1

# Mesh description
g RealMap_mesh_0003

# Faces
f 1/1/1 2/2/1 3/3/1 4/4/1
f 5/1/1 6/2/1 7/3/1 8/4/1
f 9/1/1 10/2/1 11/3/1 12/4/1
f 13/1/1 14/2/1 15/3/1 16/4/1
f 17/1/1 18/2/1 19/3/1 20/4/1
f 21/1/1 22/2/1 23/3/1 24/4/1
f 25/5/1 26/6/1 27/7/1 28/8/1
f 29/5/1 30/6/1 31/7/1 32/8/1
f 33/5/1 34/6/1 35/7/1 36/8/1
f 37/5/1 38/6/1 39/7/1 40/8/1
f 41/5/1 42/6/1 43/7/1 44/8/1
f 45/5/1 46/6/1 47/7/1 48/8/1
f 49/5/1 50/6/1 51/7/1 52/8/1
f 53/5/1 54/6/1 55/7/1 56/8/1
f 57/9/1 58/10/1 59/11/1 60/12/1
f 61/5/1 62/6/1 63/7/1 64/8/1
f 65/5/1 66/6/1 67/7/1 68/8/1
f 69/5/1 70/6/1 71/7/1 72/8/1
f 73/5/1 74/6/1 75/7/1 76/8/1
f 77/5/1 78/6/1 79/7/1 80/8/1
f 81/5/1 82/6/1 83/7/1 84/8/1
f 85/13/1 86/14/1 87/15/1 88/16/1
f 89/17/1 90/18/1 91/19/1 92/20/1
f 93/1/1 94/2/1 95/3/1 96/4/1
f 97/1/1 98/2/1 99/3/1 100/4/1
f 101/1/1 102/2/1 103/3/1 104/4/1
f 105/1/1 106/2/1 107/3/1 108/4/1
f 109/1/1 110/2/1 111/3/1 112/4/1
f 113/1/1 114/2/1 115/3/1 116/4/1
f 117/21/1 118/22/1 119/23/1 120/24/1
f 121/25/1 122/26/1 123/27/1 124/28/1
f 125/25/1 126/26/1 127/27/1 128/28/1
f 129/25/1 130/26/1 131/27/1 132/28/1
f 133/25/1 134/26/1 135/27/1 136/28/1
f 137/25/1 138/26/1 139/27/1 140/28/1
f 141/25/1 142/26/1 143/27/1 144/28/1
f 145/25/1 146/26/1 147/27/1 148/28/1
f 149/25/1 150/26/1 151/27/1 152/28/1
f 153/25/1 154/26/1 155/27/1 156/28/1
f 157/29/1 158/30/1 159/31/1 160/32/1
f 161/25/1 162/26/1 163/27/1 164/28/1
f 165/25/1 166/26/1 167/27/1 168/28/1
f 169/25/1 170/26/1 171/27/1 172/28/1
f 173/25/1 174/26/1 175/27/1 176/28/1
f 177/25/1 178/26/1 179/27/1 180/28/1
f 181/25/1 182/26/1 183/27/1 184/28/1
f 185/25/1 186/26/1 187/27/1 188/28/1
f 189/33/1 190/34/1 191/35/1 192/36/1
f 193/37/1 194/38/1 195/39/1 196/40/1
f 197/41/1 198/42/1 199/43/1 200/44/1
f 201/41/1 202/42/1 203/43/1 204/44/1
f 205/41/1 206/42/1 207/43/1 208/44/1
f 209/41/1 210/42/1 211/43/1 212/44/1
f 213/41/1 214/42/1 215/43/1 216/44/1
f 217/41/1 218/42/1 219/43/1 220/44/1
f 221/41/1 222/42/1 223/43/1 224/44/1
f 225/41/1 226/42/1 227/43/1 228/44/1
f 229/45/1 230/46/1 231/47/1 232/48/1

